<?xml version="1.0" encoding="UTF-8"?>
<svg id="Layer_2" data-name="Layer 2" xmlns="http://www.w3.org/2000/svg" viewBox="0 0 1296.97 825.33">
  <defs>
    <style>
      .cls-1 {
        fill: #9e9e9e;
        stroke-width: 0px;
      }
    </style>
  </defs>
  <g id="Layer_6" data-name="Layer 6">
    <g>
      <path class="cls-1" d="M1102.03,272.83c-1.24-1.35-31.06-33.48-85.87-66.33-32.12-19.25-66.22-34.75-101.35-46.06-43.94-14.15-89.63-21.76-135.78-22.62-1.03-.02-4.77-.08-9.68-.08-78.82,0-154.15,15.41-223.89,45.82-65.95,28.74-126.91,70.85-181.21,125.14-65.09,65.09-116.39,139.33-152.5,220.67-38.82,87.46-58.5,180.04-58.5,275.16,0,4.01.02,20.81.02,20.81h781.06c91.58-.01,165.84-74.13,166.08-165.65,7.9-2.91,19.47-8.25,32.74-17.75,54.52-39,59.75-109.34,61.71-135.82,0-.06.1-1.35.1-1.4,3.71-49.49-8.24-100.36-35.52-151.22-15.2-28.33-34.5-55.45-57.41-80.66ZM788.37,158.63c95.03,3.83,169.92,37.23,216.58,65.09,37.1,22.16,62.56,44.31,74.39,55.49l-262.64,262.65c-11.19,11.2-20.69,24.02-28.32,38.03V158.63ZM768.24,158.27v500.96c0,15.66,2.17,30.81,6.22,45.18l-388.38-388.38c106.4-102.98,238.29-157.48,382.16-157.76ZM173.77,804.52c0-174.74,70.02-342.49,197.38-473.58l445.46,445.46c10.98,11.02,23.49,20.51,37.2,28.12H173.77ZM934.32,805.31c-80.6,0-145.94-65.34-145.94-145.94,0-43.91,19.4-83.29,50.08-110.04h.02s.12-.13.12-.13c25.62-22.28,59.09-35.77,95.72-35.77,2.24,0,4.47.06,6.69.16h0s.05,0,.05,0c77.47,3.52,139.21,67.44,139.21,145.78s-65.34,145.94-145.94,145.94ZM1099.06,638.05c-1.14-8.91-2.98-17.6-5.47-26.01l18.93,18.93c-5.05,3.07-9.61,5.38-13.45,7.09ZM1128.99,619.05l-77.49-77.49c-11.38-11.56-23.22-20.26-37.56-28.11h159.73c-2.37,26.28-9.68,74.96-44.68,105.6ZM1175,493.15h-240.64c-16.07,0-31.71,2.3-46.41,6.57l205.56-205.56c34.66,40.06,83.96,112.62,81.49,198.99Z"/>
      <path class="cls-1" d="M118.01,738.71c-8.41-7.72-18.51-11.85-30.29-12.4-12.56-.58-23.34,2.5-32.36,9.24-9.57,7.19-14.65,16.95-15.21,29.26-.5,10.77,3.18,19.62,11.03,26.54.63.51.94.97.92,1.38-.04.83-1.19,1.2-3.45,1.09-3.09-.14-7.74-.49-13.95-1.05-6.21-.55-10.86-.9-13.95-1.04-2.08-.1-5.2-.39-9.35-.88-4.15-.49-7.24-.78-9.26-.87-1.37-.06-2.07.38-2.12,1.33-.06,1.31.04,3.04.3,5.2.24,2.58.37,4.28.39,5.12-.02,4.23-.04,7.42-.08,9.57.1,1.47.85,2.27,2.23,2.41.32-.05,6.36-.07,18.14-.04,21.35.03,37.53.3,48.53.81,26.9,1.24,45.09,2.56,54.56,3.95,1.13.17,1.66.25,1.6.25.77.04,1.18-.3,1.21-1.02l.87-18.83c.04-.77-1.64-1.34-5.02-1.71-3.38-.36-5.15-.88-5.3-1.54,2.07-2.29,4.18-4.58,6.31-6.87,4.2-5.71,6.48-12.43,6.83-20.17.53-11.6-3.66-21.52-12.58-29.74ZM112.37,771.81c-.33,7.26-3.41,13.14-9.22,17.64-5.57,4.34-12.04,6.33-19.42,5.99-7.26-.33-13.46-2.92-18.61-7.75-5.43-5.02-7.99-11.1-7.66-18.24.32-6.96,3.48-12.69,9.47-17.18,5.62-4.21,11.97-6.16,19.05-5.83,7.2.33,13.38,2.79,18.53,7.38,5.56,4.97,8.17,10.96,7.85,17.98Z"/>
      <path class="cls-1" d="M3.1,813.65c-.09,0-.17-.02-.25-.03-.05,0,.03.02.25.03Z"/>
      <path class="cls-1" d="M145.45,635.84c-4.27-.79-10.7-1.85-19.27-3.17-8.57-1.32-14.99-2.37-19.27-3.17-4.33-.8-10.79-2.18-19.36-4.14-8.57-1.95-15-3.33-19.27-4.12-2.05-.38-3.23.28-3.55,1.98l-2.69,14.5c-.45,2.4.77,3.87,3.64,4.4,26.53,4.92,41.97,7.94,46.31,9.05,3.48.83,6.63,4.26,9.45,10.3,2.7,5.71,3.7,10.41,3.02,14.1-1.61,8.67-5.81,13.68-12.6,15.02-3.79.81-10.8.27-21.05-1.63-4.22-.78-8.07-1.59-11.55-2.42-2.33-.49-6.26-1.68-11.79-3.55-5.19-1.75-8.93-2.84-11.21-3.26-1.29-.24-2.04.23-2.26,1.4-.32,1.7-.82,4.24-1.51,7.63-.69,3.39-1.19,5.93-1.51,7.63-.26,1.41.7,2.58,2.89,3.53,9.03,3.92,20.34,7.14,33.92,9.66,15.05,2.79,25.72,3.44,31.99,1.94,10.14-2.42,16.42-10.1,18.82-23.05,1.77-9.55-.68-20-7.36-31.36-.42-.68-.6-1.17-.55-1.46.1-.53,2.36-.46,6.78.21,4.42.67,6.7.65,6.83-.05,2.12-11.42,3.16-17.38,3.13-17.87-.15-1.18-.8-1.88-1.97-2.09Z"/>
      <path class="cls-1" d="M156.73,598.59c-4.12-1.2-10.36-2.92-18.74-5.17-8.37-2.25-14.65-3.98-18.82-5.19-4.46-1.3-11.06-3.51-19.8-6.64-8.74-3.13-15.31-5.33-19.71-6.61-1.09-.32-1.77.01-2.05.98-.32,1.09-.64,2.75-.98,4.97-.34,2.23-.66,3.89-.98,4.97-.32,1.09-.93,2.66-1.84,4.72-.91,2.06-1.51,3.61-1.81,4.64-.35,1.2-.04,1.94.93,2.23,4.46,1.3,11.25,2.91,20.37,4.85,9.11,1.94,15.9,3.55,20.37,4.85,4,1.16,9.94,3,17.8,5.5,7.87,2.5,13.77,4.33,17.72,5.48,2.35.68,3.69.42,4.04-.78l4.86-16.73c.3-1.03-.15-1.72-1.35-2.07Z"/>
      <path class="cls-1" d="M49.7,591.31c7.04,2.04,11.71-.91,14.02-8.86,2.28-7.84-.1-12.78-7.14-14.82-3.15-.91-6.06-.5-8.73,1.23-2.67,1.74-4.48,4.2-5.41,7.41-.93,3.2-.76,6.23.52,9.08,1.34,3.06,3.59,5.04,6.74,5.96Z"/>
      <path class="cls-1" d="M47.58,541.15c6.01,2.12,15.2,5.03,27.57,8.73,12.37,3.7,21.59,6.62,27.66,8.76,6.69,2.36,16.68,5.95,29.98,10.76,13.3,4.82,23.27,8.39,29.9,10.73,1.29.46,2.12.18,2.47-.83l5.68-16.1c.32-.9-.17-1.58-1.46-2.03-6.63-2.34-16.65-5.75-30.08-10.23-13.42-4.48-23.47-7.9-30.16-10.25-15-5.29-32.73-12.24-53.2-20.84l-1.07-.47c-.88-.37-1.5-.05-1.85.96-.36,1.01-.82,2.59-1.38,4.72-.56,2.14-1.04,3.74-1.41,4.81-.36,1.01-.98,2.5-1.86,4.46-.88,1.96-1.5,3.45-1.86,4.46-.42,1.18-.06,1.97,1.06,2.36Z"/>
      <path class="cls-1" d="M79.11,499c2.24.97,5.63,2.36,10.17,4.17,4.54,1.81,7.9,3.19,10.09,4.13,2.13.92,2.71,2.67,1.73,5.23-.51,1.34-1.07,2.69-1.66,4.05-.41,1.7,0,2.92,1.24,3.65,1.65.98,3.27,1.81,4.86,2.5,4.21,1.83,6.7,2.22,7.47,1.2.91-1.94,1.8-3.93,2.68-5.95,1.14-2.17,2.82-2.77,5.06-1.8,4.65,2.02,11.58,5.16,20.8,9.42,9.22,4.26,16.16,7.4,20.8,9.42,11.59,5.03,20.15,1.15,25.7-11.64,4.17-9.62,6.17-17.13,5.98-22.54-.03-.99-.18-1.67-.47-2.06-.17-.2-.74-.55-1.7-1.03-.74-.39-2.34-1.27-4.79-2.66-1.98-1.12-3.57-1.94-4.78-2.46-.98-.43-1.62-.31-1.9.34-.69,1.59-1.37,4.18-2.06,7.78-.69,3.6-1.4,6.25-2.13,7.94-1.78,4.1-4.37,6.19-7.78,6.27-2.24.07-5.71-.92-10.41-2.96l-12.21-5.3c-6.99-3.04-12.37-5.53-16.13-7.49-3.02-1.57-4.44-2.57-4.25-3.01.95-2.18,2.53-5.43,4.75-9.72,2.22-4.3,3.81-7.54,4.75-9.72.66-1.53.48-2.52-.56-2.97-.82-.36-2.09-.87-3.81-1.55-1.72-.68-2.99-1.2-3.81-1.55-.71-.31-1.75-.87-3.11-1.69-1.36-.82-2.38-1.37-3.03-1.66-.66-.28-1.19.04-1.59.97l-8.54,19.67c-.64,1.48-1.75,1.87-3.34,1.18-2.4-1.04-5.93-2.79-10.59-5.23-4.65-2.44-8.18-4.18-10.59-5.23-1.04-.45-1.91-.08-2.62,1.1-5.94,9.05-9.01,13.82-9.23,14.31-.66,1.53,1,3.16,4.99,4.89Z"/>
      <path class="cls-1" d="M154.78,328.49c1.69,1.11,4.26,2.68,7.7,4.72,3.44,2.04,5.98,3.59,7.62,4.67l24.22,15.86c.55.36.77.79.66,1.28-3.26.85-6.52,1.75-9.77,2.68-6.76,2.27-12.19,6.54-16.3,12.82-6.82,10.42-8.56,21.34-5.23,32.78,3.18,10.91,10.08,19.84,20.69,26.79,10.22,6.69,20.95,9.34,32.18,7.94,11.92-1.45,21.17-7.21,27.76-17.28,5.81-8.87,7.26-19.13,4.36-30.79-.2-.77-.28-1.36-.24-1.76.21-.22,2.09.75,5.64,2.89,3.55,2.15,5.55,2.87,6,2.17.49-.75,1.13-1.89,1.93-3.44.8-1.54,1.44-2.69,1.93-3.44-.1.15.61-.77,2.13-2.77,1.24-1.68,2.12-3.02,2.64-4.04.76-1.49.88-2.38.35-2.65l-1.02-.56c-10.67-5.78-25.85-15.11-45.53-28-6.38-4.18-15.8-10.75-28.25-19.73-12.46-8.98-21.9-15.57-28.33-19.78-1.05-.69-1.85-.6-2.4.24-1.17,1.79-2.79,4.62-4.85,8.47-2.06,3.85-3.69,6.7-4.9,8.54-.52.8-.19,1.59,1.01,2.37ZM221.7,372.1c6.13,4.01,10.24,9.27,12.32,15.76,2.19,6.99,1.32,13.47-2.59,19.45-3.88,5.93-9.49,9.38-16.82,10.35-7.01,1.03-13.51-.41-19.49-4.33-6.28-4.11-10.42-9.53-12.43-16.26-2.17-7.12-1.25-13.74,2.76-19.87,3.82-5.83,9.43-9.13,16.85-9.9,6.95-.72,13.42.88,19.4,4.8Z"/>
      <path class="cls-1" d="M214.71,315.25c3.64,2.89,9.31,6.96,17.01,12.21,7.7,5.25,13.37,9.32,17.01,12.21,3.26,2.6,8.06,6.54,14.39,11.84,6.33,5.3,11.1,9.23,14.32,11.78,1.91,1.52,3.26,1.79,4.04.81l10.84-13.64c.67-.84.51-1.65-.47-2.43-3.36-2.67-8.48-6.63-15.38-11.89-6.9-5.25-12.04-9.23-15.45-11.94-3.64-2.89-8.9-7.44-15.8-13.65-6.9-6.21-12.14-10.74-15.73-13.59-.89-.7-1.64-.66-2.27.13-.7.89-1.63,2.3-2.79,4.23-1.16,1.93-2.09,3.34-2.79,4.23-.7.89-1.87,2.11-3.49,3.67-1.62,1.56-2.77,2.76-3.44,3.6-.78.98-.77,1.78.02,2.41Z"/>
      <path class="cls-1" d="M195.56,300.71c5.73,4.56,11.18,3.6,16.33-2.88,5.08-6.39,4.75-11.86-.98-16.42-2.56-2.04-5.41-2.76-8.55-2.17-3.13.59-5.74,2.19-7.81,4.8-2.08,2.61-3.06,5.48-2.96,8.6.08,3.34,1.41,6.03,3.97,8.07Z"/>
      <path class="cls-1" d="M237.51,270.06c1.77,1.59,4.14,3.6,7.09,6.01-4.74,5.91-6.65,9.28-5.72,10.12.98.88,2.47,2.14,4.48,3.78,2.01,1.64,3.5,2.9,4.47,3.78,1.51,1.35,2.39,2.02,2.64,2.01.42.06,1.93-1.39,4.51-4.36,2.38-2.74,4.17-3.58,5.37-2.5l45.75,41.07c1.37,1.23,2.58,1.27,3.61.12l10.92-12.17c.8-.89.6-1.87-.6-2.94-3.1-2.78-7.9-6.89-14.4-12.32-6.49-5.43-11.29-9.54-14.4-12.32l-19.88-17.85c1.35-1.51,3.52-3.76,6.5-6.77,2.98-3.01,5.17-5.29,6.56-6.84.8-.89.77-1.71-.07-2.46-1.2-1.07-3.07-2.67-5.61-4.79-2.54-2.12-4.43-3.74-5.67-4.85-.8-.72-1.67-.54-2.63.52-1.43,1.6-3.61,3.93-6.52,7-2.91,3.07-5.03,5.33-6.34,6.8-9.58-8.6-14.56-15.03-14.96-19.31-.22-2.6.62-5.33,2.53-8.17,1.73-2.29,3.46-4.62,5.19-6.99.63-.88.68-1.56.14-2.03-.13-.12-2.36-1.45-6.67-4.01-4.31-2.55-6.54-3.84-6.66-3.88-.65-.26-1.17-.17-1.57.27-4.14,4.61-7.3,9.82-9.47,15.63-2.44,6.46-3.13,12.4-2.08,17.83,1.13,6.06,5.62,12.61,13.46,19.65Z"/>
      <path class="cls-1" d="M278.04,226.38c1.65,1.71,3.87,3.88,6.65,6.5-5.15,5.55-7.3,8.78-6.43,9.68.91.94,2.31,2.31,4.19,4.09,1.89,1.78,3.28,3.15,4.19,4.09,1.41,1.46,2.24,2.19,2.49,2.19.42.09,2.02-1.25,4.81-4.02,2.57-2.56,4.42-3.27,5.54-2.11l42.69,44.23c1.28,1.33,2.48,1.46,3.6.38l11.77-11.36c.86-.83.73-1.82-.39-2.98-2.9-3-7.39-7.44-13.48-13.32-6.09-5.88-10.58-10.32-13.48-13.32l-18.55-19.22c1.46-1.41,3.78-3.5,6.97-6.29,3.19-2.79,5.53-4.9,7.03-6.35.86-.83.89-1.65.11-2.46-1.12-1.16-2.87-2.88-5.25-5.18-2.38-2.3-4.15-4.04-5.31-5.24-.74-.77-1.63-.66-2.66.33-1.54,1.49-3.88,3.66-7,6.51-3.13,2.85-5.4,4.96-6.81,6.33-8.94-9.26-13.45-16.04-13.54-20.34-.04-2.61,1-5.27,3.11-7.97,1.89-2.16,3.79-4.35,5.68-6.6.69-.83.78-1.5.29-2.02-.12-.13-2.25-1.62-6.37-4.47-4.12-2.85-6.24-4.3-6.37-4.35-.63-.31-1.15-.25-1.58.16-4.46,4.3-7.98,9.28-10.57,14.92-2.89,6.27-4.01,12.15-3.35,17.64.69,6.12,4.7,12.97,12.02,20.56Z"/>
      <path class="cls-1" d="M377.3,247.62c11.56,1.43,22.78-2.11,33.67-10.62,10.79-8.44,16.77-19.02,17.95-31.73.13-1.38.08-2.22-.14-2.5-.18-.23-2.34-1.29-6.45-3.18-4.12-1.88-6.27-2.82-6.47-2.83-.19,0-.47.14-.85.44-.27,1.2-.55,2.4-.82,3.59-2.45,9.63-7.38,17.35-14.8,23.14-4.32,3.38-9.43,5.15-15.35,5.32-6.22.17-11.25-1.56-15.08-5.22,25.45-23.16,38.89-35.9,40.32-38.23,2.09-3.52,1.77-7.02-.95-10.49-7.05-9.01-15.91-14.4-26.6-16.17-10.98-1.85-20.88.67-29.7,7.57-9.48,7.41-14.56,17.4-15.25,29.96-.58,12.02,2.91,22.87,10.47,32.53,8.48,10.84,18.5,16.98,30.05,18.41ZM354.17,195.21c.64-6.1,3.12-10.83,7.43-14.21,3.85-3.01,8.48-4.21,13.9-3.62,5.42.6,9.66,2.85,12.7,6.74.44.56-.55,2.1-2.98,4.6-8.57,8.97-16.32,16.17-23.26,21.6-1.69,1.32-2.92,1.49-3.69.5-3.38-4.32-4.74-9.52-4.11-15.62Z"/>
      <path class="cls-1" d="M415.96,125.27s.03,0,.04-.01c0,0-.01,0-.04.01Z"/>
      <path class="cls-1" d="M402.36,139.89c6.97,6.22,14.28,15.62,21.9,28.2,2.53,4.18,6.25,10.46,11.16,18.84,4.91,8.38,8.61,14.63,11.11,18.76.77,1.27,1.74,1.56,2.92.84,1.58-.96,3.99-2.38,7.23-4.28,3.24-1.9,5.65-3.32,7.23-4.28,1.17-.71,1.34-1.75.51-3.13-1.73-2.85-4.47-7.11-8.22-12.78-3.75-5.67-6.49-9.93-8.22-12.78l-5.1-8.41c-4.2-6.93-6.43-11.81-6.69-14.65-.41-4.7,2.6-8.99,9.01-12.88,1.12-.68,2.83-1.56,5.14-2.64,2.3-1.08,3.99-1.95,5.06-2.6.87-.52,1.02-1.42.46-2.68-2.02-5.05-4.72-10.37-8.12-15.98-.65-1.07-2.96-.4-6.93,2.01-3.11,1.88-5.47,3.73-7.08,5.55-1.99,2.11-3.72,4.55-5.18,7.32-1.29,2.59-2.57,5.18-3.86,7.77-.09.2-.19.32-.29.38-.66.4-2.03-.82-4.11-3.67-2.04-2.81-3.47-3.98-4.29-3.55.02.08-2.23,2.14-6.76,6.17-3.17,2.48-5.63,4.39-7.39,5.73-.51.66-.58,1.29-.21,1.9.12.2.36.48.71.82Z"/>
      <path class="cls-1" d="M500.36,165c10.87,4.18,22.62,3.45,35.23-2.19,12.51-5.59,20.87-14.41,25.07-26.47.46-1.31.61-2.13.47-2.46-.12-.27-1.95-1.82-5.5-4.64-3.54-2.82-5.41-4.25-5.59-4.3-.18-.05-.49.03-.93.22-.55,1.1-1.11,2.19-1.66,3.29-4.7,8.76-11.35,15.05-19.94,18.89-5,2.24-10.4,2.72-16.18,1.46-6.08-1.33-10.54-4.23-13.38-8.7,30.28-16.34,46.4-25.46,48.35-27.38,2.87-2.91,3.41-6.38,1.61-10.41-4.67-10.44-11.97-17.81-21.92-22.11-10.21-4.44-20.42-4.38-30.65.19-10.99,4.91-18.33,13.38-22.02,25.4-3.46,11.53-2.69,22.9,2.32,34.1,5.61,12.56,13.86,20.94,24.73,25.11ZM490.55,108.56c2.09-5.76,5.64-9.76,10.64-12,4.46-1.99,9.25-2.04,14.37-.16,5.12,1.89,8.69,5.09,10.7,9.6.29.65-1.04,1.9-4,3.75-10.48,6.64-19.74,11.76-27.79,15.35-1.96.88-3.19.74-3.7-.4-2.24-5-2.31-10.39-.22-16.15Z"/>
      <path class="cls-1" d="M554.06,68.08c5.38,9.65,9.73,20.61,13.03,32.86,1.24,4.6,3.02,11.47,5.33,20.59,2.31,9.13,4.08,15.96,5.3,20.5.36,1.32,1.14,1.82,2.35,1.5,1.84-.5,4.61-1.21,8.31-2.15,3.7-.94,6.46-1.65,8.31-2.15,1.09-.29,1.45-1.16,1.06-2.6l-13.97-51.76c-.71-2.65,1.17-6.39,5.67-11.25,4.25-4.6,7.81-7.29,10.69-8.07,6.21-1.68,10.9-1.21,14.07,1.39,2.63,2.19,4.83,6.56,6.6,13.12.62,2.3,1.58,5.73,2.87,10.29,1.29,4.56,2.25,7.99,2.87,10.29.78,2.88,1.85,7.21,3.23,13.01,1.38,5.8,2.45,10.11,3.21,12.92.45,1.67,1.19,2.36,2.23,2.08,1.9-.51,4.74-1.25,8.52-2.21,3.78-.96,6.62-1.69,8.52-2.21,1.15-.31,1.55-1.1,1.21-2.36-1.04-3.85-2.65-9.59-4.83-17.21-2.18-7.62-3.79-13.35-4.83-17.21-.5-1.84-1.2-4.61-2.11-8.32-.91-3.7-1.6-6.45-2.08-8.23-2.78-10.29-6.25-17.35-10.43-21.16-5.66-5.2-13.9-6.34-24.71-3.42-5.64,1.52-10.98,4.94-16.02,10.25-3.94,4.83-7.09,8.82-9.44,11.99-2.01-3.34-3.64-6.76-4.89-10.25-.36-.89-.72-1.29-1.06-1.19-.29.08-3.39,1.46-9.3,4.13-5.91,2.68-9.06,4.1-9.45,4.26-.69.43-.95.94-.8,1.51.06.23.25.58.56,1.05Z"/>
      <path class="cls-1" d="M654.04,57.66c2.13-.22,4.29-.47,6.48-.76,2.44-.14,3.83,1,4.14,3.42.66,5.02,1.52,12.58,2.6,22.68,1.08,10.1,1.95,17.66,2.6,22.68,1.63,12.52,9.36,17.88,23.19,16.08,10.4-1.36,17.87-3.5,22.41-6.44.83-.53,1.34-1.02,1.52-1.46.09-.25.09-.91.01-1.98-.05-.83-.11-2.66-.17-5.47-.06-2.27-.17-4.06-.34-5.36-.14-1.06-.56-1.55-1.27-1.46-1.71.22-4.29.97-7.73,2.23-3.44,1.26-6.08,2.01-7.91,2.25-4.43.58-7.55-.58-9.37-3.46-1.21-1.88-2.14-5.37-2.81-10.45l-1.72-13.2c-.99-7.56-1.61-13.46-1.86-17.69-.2-3.4-.07-5.13.4-5.19,2.36-.31,5.96-.61,10.79-.91,4.83-.3,8.42-.6,10.78-.91,1.65-.22,2.41-.88,2.26-2.01-.12-.89-.32-2.24-.62-4.06-.3-1.82-.5-3.18-.62-4.06-.1-.77-.15-1.95-.15-3.54,0-1.59-.04-2.74-.13-3.45-.09-.71-.64-1-1.65-.87l-21.26,2.78c-1.59.21-2.5-.54-2.73-2.26-.34-2.6-.66-6.52-.95-11.77-.29-5.25-.61-9.17-.95-11.77-.15-1.12-.91-1.68-2.29-1.68-10.81-.45-16.48-.64-17.02-.57-1.65.22-2.2,2.48-1.64,6.79.32,2.42.86,6.05,1.64,10.87.78,4.82,1.32,8.42,1.63,10.78.3,2.3-.9,3.69-3.6,4.16-1.41.24-2.85.46-4.33.66-1.67.52-2.51,1.5-2.5,2.94.01,1.92.13,3.74.35,5.45.59,4.55,1.53,6.89,2.81,7.02Z"/>
      <path class="cls-1" d="M776.67,117.4l17.41.74c1.07.05,1.63-.56,1.69-1.81.18-4.29.37-10.76.56-19.43.19-8.67.38-15.17.56-19.52.2-4.64.77-11.58,1.73-20.81.96-9.23,1.54-16.14,1.73-20.72.05-1.13-.43-1.72-1.45-1.76-1.13-.05-2.82.03-5.06.23-2.24.2-3.93.28-5.06.23-1.13-.05-2.81-.27-5.03-.66-2.22-.39-3.86-.61-4.94-.66-1.25-.05-1.9.43-1.94,1.44-.2,4.64-.15,11.62.14,20.93.29,9.31.34,16.29.14,20.93-.18,4.17-.55,10.37-1.1,18.6-.56,8.24-.93,14.4-1.1,18.51-.1,2.44.47,3.69,1.72,3.74Z"/>
      <path class="cls-1" d="M789.3,22.15c8.15.35,12.39-3.14,12.7-10.46.14-3.27-.95-6-3.27-8.19-2.32-2.19-5.15-3.35-8.48-3.49-3.33-.14-6.23.75-8.7,2.67-2.65,2.03-4.05,4.69-4.18,7.96-.31,7.32,3.67,11.16,11.94,11.51Z"/>
      <path class="cls-1" d="M814.58,118.71c1.88.32,4.69.82,8.44,1.52,3.75.69,6.56,1.2,8.44,1.52,1.12.19,1.8-.45,2.05-1.92l8.95-52.86c.46-2.7,3.74-5.32,9.85-7.85,5.78-2.4,10.14-3.36,13.08-2.86,6.34,1.07,10.41,3.45,12.21,7.14,1.47,3.09,1.64,7.98.51,14.68-.4,2.35-.96,5.86-1.69,10.54-.73,4.68-1.3,8.19-1.69,10.54-.5,2.94-1.33,7.33-2.5,13.17-1.17,5.84-2,10.21-2.49,13.08-.29,1.7.1,2.64,1.15,2.82,1.94.33,4.83.85,8.66,1.56,3.84.71,6.72,1.23,8.66,1.56,1.17.2,1.87-.35,2.09-1.64.67-3.93,1.6-9.82,2.81-17.65,1.2-7.83,2.14-13.71,2.81-17.65.32-1.88.84-4.69,1.56-8.44.72-3.74,1.24-6.53,1.55-8.35,1.78-10.51,1.57-18.37-.63-23.58-2.97-7.09-9.98-11.57-21.02-13.43-5.76-.97-12.04-.1-18.84,2.61-5.6,2.74-10.13,5.05-13.59,6.94-.43-3.88-.49-7.66-.16-11.36.04-.96-.11-1.47-.47-1.53-.29-.05-3.69-.09-10.17-.14-6.49-.04-9.94-.07-10.36-.08-.8.11-1.25.45-1.35,1.04-.04.24-.02.63.07,1.19.85,11.02.22,22.78-1.89,35.3-.79,4.7-2.05,11.68-3.77,20.93-1.72,9.26-2.97,16.2-3.75,20.84-.23,1.35.27,2.13,1.51,2.34Z"/>
      <path class="cls-1" d="M936.44,146.61c9.94,3.69,20.27,2.83,30.99-2.6.71-.37,1.26-.58,1.66-.62.26.16-.26,2.21-1.57,6.14-1.3,3.93-1.56,6.04-.78,6.33.84.31,2.1.68,3.78,1.12,1.68.43,2.94.81,3.78,1.12-.17-.06.89.43,3.17,1.46,1.91.84,3.42,1.4,4.52,1.68,1.62.41,2.51.33,2.67-.25l.32-1.12c3.26-11.69,8.99-28.56,17.18-50.62,2.66-7.15,6.97-17.79,12.96-31.93,5.98-14.14,10.31-24.81,12.99-32.02.44-1.17.18-1.94-.77-2.29-2.01-.75-5.12-1.7-9.33-2.85-4.21-1.15-7.35-2.11-9.42-2.88-.89-.33-1.59.17-2.09,1.51-.71,1.9-1.67,4.75-2.89,8.55-1.22,3.8-2.18,6.63-2.86,8.47l-10.08,27.14c-.23.61-.6.92-1.11.92-1.56-2.99-3.15-5.97-4.79-8.93-3.71-6.08-9.09-10.43-16.13-13.04-11.67-4.34-22.71-3.61-33.12,2.19-9.93,5.53-17.11,14.24-21.52,26.13-4.25,11.45-4.45,22.5-.59,33.14,4.06,11.3,11.74,19.04,23.02,23.23ZM932.74,97c2.61-7.04,6.98-12.28,13.09-15.73,6.46-3.7,13.12-4.28,19.99-1.73,6.53,2.43,11,7.17,13.4,14.22,2.24,6.62,2.12,13.28-.37,19.98-2.55,6.87-6.76,12.04-12.63,15.52-6.33,3.69-12.84,4.29-19.54,1.8-6.65-2.47-11.25-7.17-13.83-14.1-2.57-6.61-2.6-13.26-.12-19.96Z"/>
      <path class="cls-1" d="M1005.11,160.2c-1.49,10.32,3.34,18.98,14.48,25.99,8.22,5.17,18.84,6.74,31.86,4.72.79-.14,1.31-.13,1.56.03.45.29-.45,2.36-2.7,6.22-2.25,3.86-3.07,5.98-2.47,6.36,9.83,6.18,14.98,9.35,15.45,9.5,1.15.3,2.04-.05,2.67-1.06,2.31-3.68,5.66-9.26,10.05-16.74,4.38-7.48,7.73-13.06,10.05-16.74,2.35-3.73,6.01-9.22,10.99-16.47,4.98-7.25,8.62-12.71,10.94-16.4,1.11-1.76.93-3.11-.53-4.03l-12.48-7.85c-2.07-1.3-3.88-.71-5.43,1.76-14.36,22.85-22.86,36.08-25.48,39.71-2.05,2.93-6.41,4.59-13.06,4.99-6.3.4-11.04-.4-14.22-2.39-7.46-4.69-10.57-10.44-9.31-17.25.64-3.82,3.73-10.14,9.28-18.97,2.28-3.63,4.45-6.91,6.5-9.84,1.32-1.99,3.87-5.2,7.65-9.65,3.54-4.18,5.93-7.25,7.17-9.22.7-1.11.54-1.98-.47-2.62-1.46-.92-3.64-2.32-6.53-4.21-2.89-1.89-5.07-3.29-6.53-4.21-1.21-.76-2.66-.3-4.35,1.38-6.97,6.95-14.13,16.27-21.49,27.97-8.15,12.96-12.68,22.64-13.6,29.02Z"/>
      <path class="cls-1" d="M1106.8,193.57c.21,1.55,1.83,6.65,4.88,15.3,1.85,5.34,1.68,9.23-.51,11.67-4.62,5.14-11.11,3.95-19.49-3.57.04.04-.56-.62-1.82-1.99-.94-1.09-1.77-1.82-2.46-2.21-.96-.54-1.7-.52-2.21.06-.84.93-2.01,2.48-3.51,4.65-1.51,2.17-2.7,3.74-3.57,4.72-1.63,1.82-2.23,3.24-1.79,4.27.23.45,1.68,1.87,4.34,4.26,6.87,6.17,14.33,9.58,22.38,10.25,8.86.75,16.25-2.18,22.18-8.79,4.85-5.41,7.02-11.47,6.48-18.19-.23-2.6-1.66-7.78-4.32-15.52-1.76-5.26-1.75-8.89.04-10.89,2.51-2.79,5.88-3.12,10.13-.99,3.2,2.23,6.4,4.42,9.59,6.57.96.62,1.66.69,2.1.2.56-.62,1.78-2.81,3.66-6.56,1.88-3.75,2.94-6.04,3.17-6.88.23-.83.03-1.53-.59-2.09-6.92-6.21-14.13-9.68-21.63-10.41-8.35-.77-15.51,2.17-21.48,8.82-4.58,5.1-6.44,10.87-5.58,17.32Z"/>
      <path class="cls-1" d="M1166.12,215.67c1.44,1.98,1.23,3.76-.63,5.34-3.87,3.27-9.75,8.1-17.66,14.48-7.91,6.38-13.79,11.21-17.66,14.48-9.64,8.16-9.95,17.56-.95,28.2,6.77,8,12.63,13.12,17.56,15.34.89.41,1.58.57,2.05.49.26-.06.82-.42,1.67-1.07.67-.49,2.18-1.53,4.51-3.11,1.88-1.28,3.32-2.34,4.32-3.19.82-.69,1-1.31.53-1.86-1.12-1.32-3.14-3.08-6.06-5.29-2.92-2.21-4.98-4.02-6.17-5.43-2.89-3.41-3.61-6.66-2.17-9.75.93-2.04,3.35-4.71,7.26-8.02l10.16-8.6c5.82-4.93,10.44-8.64,13.86-11.15,2.75-2.01,4.27-2.84,4.58-2.47,1.54,1.82,3.74,4.68,6.61,8.57,2.87,3.89,5.07,6.75,6.61,8.57,1.08,1.27,2.05,1.54,2.91.81.68-.58,1.71-1.49,3.08-2.72,1.37-1.24,2.4-2.15,3.08-2.72.59-.5,1.56-1.18,2.9-2.04,1.34-.86,2.28-1.52,2.83-1.98.55-.46.49-1.08-.16-1.85l-13.86-16.37c-1.04-1.23-.9-2.4.42-3.52,2-1.69,5.12-4.09,9.38-7.18,4.25-3.09,7.38-5.48,9.38-7.18.86-.73.92-1.68.17-2.84-5.48-9.33-8.39-14.2-8.74-14.61-1.08-1.27-3.28-.5-6.59,2.31-1.87,1.58-4.61,4-8.24,7.27-3.63,3.27-6.36,5.68-8.18,7.21-1.77,1.5-3.59,1.24-5.45-.77-.97-1.05-1.94-2.15-2.9-3.28-1.34-1.13-2.62-1.3-3.83-.51-1.61,1.05-3.07,2.13-4.39,3.25-3.5,2.96-4.96,5.02-4.38,6.17,1.34,1.68,2.72,3.35,4.15,5.04Z"/>
      <path class="cls-1" d="M1235.12,273.35s0,.03.01.04c0,0,0-.01-.01-.04Z"/>
      <path class="cls-1" d="M1173.48,292.87c-8.38,4.91-14.63,8.62-18.75,11.13-1.27.77-1.55,1.74-.84,2.92.96,1.58,2.39,3.99,4.28,7.23,1.9,3.24,3.33,5.65,4.28,7.23.71,1.17,1.75,1.34,3.13.5,2.85-1.73,7.11-4.48,12.77-8.23,5.67-3.75,9.92-6.5,12.77-8.23l8.4-5.1c6.92-4.21,11.81-6.44,14.64-6.7,4.7-.41,8.99,2.59,12.89,9,.68,1.12,1.56,2.83,2.65,5.13,1.08,2.3,1.95,3.99,2.6,5.06.53.87,1.42,1.02,2.68.46,5.05-2.02,10.37-4.73,15.97-8.13,1.07-.65.4-2.96-2.01-6.93-1.89-3.11-3.74-5.47-5.56-7.08-2.12-1.99-4.56-3.71-7.32-5.17-2.59-1.28-5.18-2.57-7.78-3.85-.2-.09-.32-.19-.38-.29-.4-.66.82-2.03,3.67-4.11,2.8-2.05,3.98-3.48,3.54-4.3-.08.02-2.14-2.23-6.18-6.75-2.48-3.16-4.39-5.63-5.74-7.39-.66-.51-1.29-.58-1.9-.2-.2.12-.48.36-.82.71-6.21,6.98-15.61,14.29-28.19,21.93-4.17,2.54-10.45,6.26-18.83,11.17Z"/>
      <path class="cls-1" d="M1286.95,335.73c3.01-1.28,5.01-3.45,5.98-6.48.97-3.04.8-6.09-.51-9.16-1.31-3.07-3.36-5.3-6.16-6.7-2.98-1.52-5.97-1.63-8.99-.34-6.74,2.87-8.49,8.12-5.24,15.74,3.2,7.51,8.17,9.82,14.91,6.95Z"/>
      <path class="cls-1" d="M1217.72,341.25c-3.84,1.64-9.59,3.98-17.26,7.02-7.67,3.04-13.4,5.37-17.18,6.99-2.25.96-3.12,2.01-2.63,3.16l6.83,16.03c.42.99,1.21,1.23,2.36.74,3.95-1.68,9.87-4.31,17.77-7.87,7.9-3.56,13.85-6.2,17.85-7.9,4.27-1.82,10.78-4.29,19.53-7.4,8.74-3.11,15.22-5.57,19.44-7.37,1.04-.44,1.36-1.13.97-2.06-.44-1.04-1.24-2.53-2.39-4.47s-1.95-3.43-2.39-4.47c-.44-1.04-.97-2.65-1.57-4.82-.6-2.17-1.11-3.75-1.53-4.74-.49-1.15-1.2-1.53-2.13-1.13-4.27,1.82-10.55,4.87-18.83,9.15-8.28,4.27-14.56,7.32-18.83,9.15Z"/>
      <path class="cls-1" d="M1221.92,458.5c1.19.71,1.96,1.03,2.31.96.29-.06,2.18-1.54,5.66-4.44,3.48-2.9,5.26-4.43,5.35-4.6.08-.17.08-.49-.03-.95-.96-.77-1.92-1.53-2.88-2.3-7.62-6.38-12.44-14.17-14.45-23.36-1.17-5.35-.56-10.73,1.86-16.14,2.54-5.68,6.28-9.46,11.24-11.34,9.85,32.97,15.52,50.6,17,52.9,2.27,3.4,5.56,4.64,9.87,3.69,11.17-2.45,19.87-8.11,26.1-16.98,6.42-9.09,8.43-19.11,6.03-30.05-2.58-11.75-9.38-20.66-20.41-26.72-10.59-5.73-21.87-7.28-33.86-4.65-13.44,2.95-23.31,9.32-29.61,19.12-6.3,9.8-7.97,21.44-5.01,34.94,2.93,13.38,9.88,23.36,20.83,29.92ZM1247.49,392.43c5.35-1.17,10.64-.15,15.86,3.06,5.22,3.21,8.41,7.5,9.59,12.85,1.05,4.77.12,9.47-2.76,14.1-2.89,4.63-6.75,7.47-11.58,8.53-.7.15-1.65-1.41-2.86-4.68-4.38-11.6-7.51-21.71-9.39-30.32-.46-2.09-.08-3.28,1.14-3.54Z"/>
      <path class="cls-1" d="M1290.76,477.18c-4.86-6.84-11.75-10.35-20.69-10.55-6.85-.15-12.44,2.2-16.78,7.05-1.04,1.17-3.85,5.73-8.43,13.67-2.85,4.88-5.91,7.29-9.18,7.22-6.91-.15-10.24-5.85-10-17.11,0,.06.11-.83.33-2.67.21-1.43.23-2.53.07-3.31-.21-1.08-.71-1.62-1.48-1.64-1.25-.03-3.19.09-5.82.37-2.63.27-4.6.39-5.91.36-2.44-.05-3.91.42-4.41,1.42-.19.47-.32,2.5-.4,6.07-.2,9.23,2.07,17.12,6.82,23.65,5.21,7.2,12.25,10.9,21.12,11.09,7.27.16,13.27-2.16,18.03-6.94,1.83-1.87,4.81-6.33,8.96-13.39,2.84-4.76,5.61-7.12,8.29-7.06,3.75.08,6.2,2.43,7.35,7.04.39,3.88.82,7.73,1.27,11.56.15,1.13.56,1.71,1.21,1.72.83.02,3.29-.48,7.36-1.49,4.07-1.01,6.5-1.71,7.28-2.08.78-.37,1.18-.97,1.2-1.81.2-9.29-1.87-17.02-6.2-23.19Z"/>
    </g>
  </g>
</svg>